<svg version="1.1" xmlns="http://www.w3.org/2000/svg" viewBox="0 0 644.0000000000001 960.4000000000001" width="644.0000000000001" height="960.4000000000001">
  <!-- svg-source:excalidraw -->
  
  <defs>
    <style class="style-fonts">
      @font-face {
        font-family: "Virgil";
        src: url("https://excalidraw.com/Virgil.woff2");
      }
      @font-face {
        font-family: "Cascadia";
        src: url("https://excalidraw.com/Cascadia.woff2");
      }
      @font-face {
        font-family: "Assistant";
        src: url("https://excalidraw.com/Assistant-Regular.woff2");
      }
    </style>
    
  </defs>
  <rect x="0" y="0" width="644.0000000000001" height="960.4000000000001" fill="#ffffff"></rect><g stroke-linecap="round" transform="translate(10.000000000000114 10) rotate(0 312 74)"><path d="M32 0 C161.45 0.04, 289.17 -0.52, 592 0 M32 0 C182.89 0.92, 332.93 0.76, 592 0 M592 0 C611.85 0.52, 625.59 10.26, 624 32 M592 0 C611.77 -0.83, 622.27 12.36, 624 32 M624 32 C622.03 62.52, 622.02 94.25, 624 116 M624 32 C623.96 48.99, 624.95 65.96, 624 116 M624 116 C623.47 139.22, 614.64 149.35, 592 148 M624 116 C624.89 137.86, 611.37 149.49, 592 148 M592 148 C459.65 148.92, 326.54 148.76, 32 148 M592 148 C463.6 149.48, 335.55 149.38, 32 148 M32 148 C9.23 149.78, -0.17 138.88, 0 116 M32 148 C10.1 149.71, 2.2 137.94, 0 116 M0 116 C-0.25 94.72, 2.04 77.62, 0 32 M0 116 C0.71 98.25, 0.55 81.09, 0 32 M0 32 C0.16 8.78, 11.67 -1.8, 32 0 M0 32 C-0.49 8.38, 8.86 0.05, 32 0" stroke="#1e1e1e" stroke-width="2" fill="none"></path></g><g stroke-linecap="round" transform="translate(10.000000000000114 276) rotate(0 312 74)"><path d="M32 0 C175.78 0.48, 319.59 -0.69, 592 0 M32 0 C227.73 0.16, 424.26 0.57, 592 0 M592 0 C612.13 1.71, 624.96 8.91, 624 32 M592 0 C612.85 -1.31, 621.99 10.66, 624 32 M624 32 C621.71 63.79, 623.08 95.27, 624 116 M624 32 C623.97 63.34, 625.06 95.73, 624 116 M624 116 C622.66 138.64, 614.11 146.1, 592 148 M624 116 C622.71 135.42, 614.56 147.61, 592 148 M592 148 C416.95 148.53, 242.83 148.73, 32 148 M592 148 C452.92 147.78, 314.24 148.31, 32 148 M32 148 C9.54 147.14, 1.46 136.26, 0 116 M32 148 C8.9 148.59, 1.37 136.26, 0 116 M0 116 C0.85 90.4, 0.29 68.76, 0 32 M0 116 C-0.14 83.73, -0.42 52.29, 0 32 M0 32 C0.83 12.1, 8.94 -0.95, 32 0 M0 32 C-1.07 12.1, 8.79 -1.13, 32 0" stroke="#1e1e1e" stroke-width="2" fill="none"></path></g><g stroke-linecap="round" transform="translate(10 544) rotate(0 312.00000000000006 74)"><path d="M32 0 C222.37 -0.17, 411.65 -0.75, 592 0 M32 0 C146.06 2.2, 261.05 2.5, 592 0 M592 0 C615.06 -0.29, 622.81 10.94, 624 32 M592 0 C614.74 -0.04, 624.73 10.24, 624 32 M624 32 C624.87 55.18, 624.08 83.16, 624 116 M624 32 C622.54 65.2, 623.51 95.95, 624 116 M624 116 C623.41 138.37, 612.8 148.77, 592 148 M624 116 C623.8 137, 611.97 148.85, 592 148 M592 148 C420.01 148.66, 247.3 149.89, 32 148 M592 148 C455.2 148.44, 318.88 148.58, 32 148 M32 148 C11.02 146.53, -0.04 136.17, 0 116 M32 148 C10.44 148.41, 1.83 135.4, 0 116 M0 116 C-0.54 89.16, -0.61 62.11, 0 32 M0 116 C1.18 85.37, 0.75 53.23, 0 32 M0 32 C-1.93 9.89, 11.03 -0.1, 32 0 M0 32 C1.59 12.01, 11.67 -1.26, 32 0" stroke="#1e1e1e" stroke-width="2" fill="none"></path></g><g stroke-linecap="round" transform="translate(10.000000000000114 802.4000000000001) rotate(0 312 74)"><path d="M32 0 C229.52 0.45, 427.45 0.13, 592 0 M32 0 C165.21 -1.61, 299.18 -1.42, 592 0 M592 0 C612.14 -0.14, 622.58 11.72, 624 32 M592 0 C612 1.1, 623.16 9.7, 624 32 M624 32 C621.46 63.87, 621.31 98.19, 624 116 M624 32 C625.17 64.57, 623.6 98.47, 624 116 M624 116 C625.9 136.51, 615.09 148.4, 592 148 M624 116 C625.12 137.42, 613.61 146.3, 592 148 M592 148 C464.98 146.87, 336.42 147.36, 32 148 M592 148 C422.31 146.1, 252.35 146.17, 32 148 M32 148 C12.54 149.16, -1.24 139.28, 0 116 M32 148 C8.73 146.2, 1.04 137.28, 0 116 M0 116 C0.83 93.1, 1.49 71.57, 0 32 M0 116 C-0.78 99.15, -0.38 81.84, 0 32 M0 32 C-0.4 8.99, 11.53 1.8, 32 0 M0 32 C0.09 11.98, 12.95 1.19, 32 0" stroke="#1e1e1e" stroke-width="2" fill="none"></path></g><g stroke-linecap="round"><g transform="translate(205.76791858922684 274.4) rotate(0 0 -58)"><path d="M1.05 0.84 C0.98 -18.64, 0.55 -97.01, 0.41 -116.53 M0.14 0.24 C-0.13 -19.12, -0.23 -96.04, -0.32 -115.27" stroke="#1e1e1e" stroke-width="2" fill="none"></path></g><g transform="translate(205.76791858922684 274.4) rotate(0 0 -58)"><path d="M8.3 -91.81 C6.44 -99.75, 0.95 -108.78, -0.32 -115.27 M8.3 -91.81 C7.05 -98.28, 3.7 -104.52, -0.32 -115.27" stroke="#1e1e1e" stroke-width="2" fill="none"></path></g><g transform="translate(205.76791858922684 274.4) rotate(0 0 -58)"><path d="M-8.8 -91.75 C-4.33 -99.87, -3.47 -108.91, -0.32 -115.27 M-8.8 -91.75 C-5.34 -98.33, -3.99 -104.59, -0.32 -115.27" stroke="#1e1e1e" stroke-width="2" fill="none"></path></g></g><mask></mask><g stroke-linecap="round"><g transform="translate(206.2177722271898 541.2450930919497) rotate(0 0 -58)"><path d="M-0.94 -0.19 C-1.06 -19.84, 0.2 -97.53, 0.26 -116.97 M0.77 -1.33 C0.43 -20.95, -0.15 -96.84, -0.55 -115.94" stroke="#1e1e1e" stroke-width="2" fill="none"></path></g><g transform="translate(206.2177722271898 541.2450930919497) rotate(0 0 -58)"><path d="M8.32 -92.57 C4.44 -101.12, -0.25 -111.4, -0.55 -115.94 M8.32 -92.57 C5.38 -98.84, 3.37 -103.08, -0.55 -115.94" stroke="#1e1e1e" stroke-width="2" fill="none"></path></g><g transform="translate(206.2177722271898 541.2450930919497) rotate(0 0 -58)"><path d="M-8.78 -92.34 C-6.14 -100.84, -4.3 -111.21, -0.55 -115.94 M-8.78 -92.34 C-7.76 -98.71, -5.83 -103, -0.55 -115.94" stroke="#1e1e1e" stroke-width="2" fill="none"></path></g></g><mask></mask><g stroke-linecap="round"><g transform="translate(206.11905434815196 805.9790339197962) rotate(0 0 -58)"><path d="M0.05 -0.17 C0.05 -19.63, -0.84 -97.27, -0.86 -116.62 M-1.38 -1.31 C-0.93 -20.62, 1.32 -96.45, 1.41 -115.41" stroke="#1e1e1e" stroke-width="2" fill="none"></path></g><g transform="translate(206.11905434815196 805.9790339197962) rotate(0 0 -58)"><path d="M9.51 -91.76 C7.35 -98.59, 4.75 -102.68, 1.41 -115.41 M9.51 -91.76 C6.87 -97.57, 4.88 -105.53, 1.41 -115.41" stroke="#1e1e1e" stroke-width="2" fill="none"></path></g><g transform="translate(206.11905434815196 805.9790339197962) rotate(0 0 -58)"><path d="M-7.59 -92.08 C-5.84 -98.84, -4.54 -102.86, 1.41 -115.41 M-7.59 -92.08 C-5.5 -97.92, -2.75 -105.79, 1.41 -115.41" stroke="#1e1e1e" stroke-width="2" fill="none"></path></g></g><mask></mask><g stroke-linecap="round"><g transform="translate(438.39619938748103 160.39999999999998) rotate(0 0 55.698633383028266)"><path d="M0.47 -0.49 C0.23 17.88, -0.69 92.11, -0.87 110.9 M-0.74 -1.8 C-0.65 16.67, 1.55 93.49, 1.39 112.17" stroke="#1e1e1e" stroke-width="2" fill="none"></path></g><g transform="translate(438.39619938748103 160.39999999999998) rotate(0 0 55.698633383028266)"><path d="M-7.46 88.79 C-5.07 95.45, -2 104.01, 1.39 112.17 M-7.46 88.79 C-4.15 96.79, -1.83 105.1, 1.39 112.17" stroke="#1e1e1e" stroke-width="2" fill="none"></path></g><g transform="translate(438.39619938748103 160.39999999999998) rotate(0 0 55.698633383028266)"><path d="M9.64 88.57 C6.07 95.38, 3.18 104.01, 1.39 112.17 M9.64 88.57 C6.66 96.6, 2.67 104.99, 1.39 112.17" stroke="#1e1e1e" stroke-width="2" fill="none"></path></g></g><mask></mask><g stroke-linecap="round"><g transform="translate(438.70185959693947 428.21422961480914) rotate(0 0 55.698633383028266)"><path d="M1.05 -0.84 C0.96 17.67, 0 92.5, -0.12 111.25 M0.14 1.33 C-0.15 20.02, -1.06 94.07, -1.13 112.7" stroke="#1e1e1e" stroke-width="2" fill="none"></path></g><g transform="translate(438.70185959693947 428.21422961480914) rotate(0 0 55.698633383028266)"><path d="M-9.48 89.14 C-8.07 96.74, -4.12 105.36, -1.13 112.7 M-9.48 89.14 C-6.81 96.39, -3.61 104.97, -1.13 112.7" stroke="#1e1e1e" stroke-width="2" fill="none"></path></g><g transform="translate(438.70185959693947 428.21422961480914) rotate(0 0 55.698633383028266)"><path d="M7.62 89.29 C3.31 96.99, 1.54 105.56, -1.13 112.7 M7.62 89.29 C4.79 96.33, 2.5 104.86, -1.13 112.7" stroke="#1e1e1e" stroke-width="2" fill="none"></path></g></g><mask></mask><g stroke-linecap="round"><g transform="translate(438.3620644148092 691.4702021159139) rotate(0 0 55.69863338302832)"><path d="M0.76 -0.38 C0.96 18.27, 0.88 93.11, 0.89 111.78 M-0.3 -1.62 C-0.16 16.66, 0.28 90.74, 0.41 109.86" stroke="#1e1e1e" stroke-width="2" fill="none"></path></g><g transform="translate(438.3620644148092 691.4702021159139) rotate(0 0 55.69863338302832)"><path d="M-8.29 86.42 C-6.55 94.28, -2.9 100.54, 0.41 109.86 M-8.29 86.42 C-5.54 94.64, -1.9 102.24, 0.41 109.86" stroke="#1e1e1e" stroke-width="2" fill="none"></path></g><g transform="translate(438.3620644148092 691.4702021159139) rotate(0 0 55.69863338302832)"><path d="M8.81 86.31 C5.85 94.31, 4.82 100.6, 0.41 109.86 M8.81 86.31 C6.08 94.5, 4.25 102.13, 0.41 109.86" stroke="#1e1e1e" stroke-width="2" fill="none"></path></g></g><mask></mask></svg>